<svg width="24.000000" height="24.000000" viewBox="0 0 24 24" fill="none" xmlns="http://www.w3.org/2000/svg" xmlns:xlink="http://www.w3.org/1999/xlink">
	<desc>
			Created with Pixso.
	</desc>
	<defs>
		<clipPath id="clip16_2540">
			<rect id="Property 1=Variant4" width="24.000000" height="24.000000" fill="white" fill-opacity="0"/>
		</clipPath>
	</defs>
	<rect id="Property 1=Variant4" width="24.000000" height="24.000000" fill="#FFFFFF" fill-opacity="0"/>
	<g clip-path="url(#clip16_2540)">
		<mask id="mask16_2567" mask-type="alpha" maskUnits="userSpaceOnUse" x="1.000000" y="1.000000" width="22.000000" height="22.000000">
			<path id="Vector" d="M1 1L23 1L23 23L1 23L1 1Z" fill="#000000" fill-opacity="1.000000" fill-rule="evenodd"/>
		</mask>
		<g mask="url(#mask16_2567)">
			<path id="Vector" d="M11.35 1.03C10.06 1.11 8.73 1.46 7.57 2.03C4.92 3.32 2.91 5.64 1.98 8.45C0.47 13.04 2.04 18.12 5.87 20.97C7.8 22.41 10.19 23.13 12.6 22.99C14.76 22.86 16.8 22.07 18.51 20.71C18.93 20.37 19.86 19.44 20.18 19.03C21.54 17.32 22.34 15.35 22.58 13.12C22.64 12.59 22.63 11.45 22.56 10.81C22.41 9.39 22.04 8.14 21.38 6.86C20.02 4.17 17.59 2.17 14.75 1.38C14.09 1.2 13.32 1.07 12.57 1.03C12.22 1.01 11.92 0.99 11.9 1C11.88 1 11.63 1.01 11.35 1.03ZM62.96 4.49C60.79 4.73 59.3 5.79 58.77 7.46C58.59 8.02 58.55 8.4 58.57 9.11C58.59 9.85 58.68 10.27 58.93 10.8C59.13 11.23 59.35 11.53 59.7 11.87C60.43 12.56 61.37 12.96 62.93 13.25C63.21 13.3 63.66 13.38 63.94 13.44C65.54 13.73 66.14 14.13 66.28 14.98C66.44 15.89 65.9 16.6 64.89 16.83C64.44 16.93 63.68 16.91 63.22 16.8C62.47 16.61 61.93 16.21 61.57 15.59C61.47 15.41 61.3 14.95 61.25 14.73L61.23 14.63L59.68 14.63L58.14 14.63L58.16 14.75C58.17 14.82 58.19 14.96 58.2 15.06C58.42 16.97 59.54 18.43 61.3 19.09C61.61 19.21 62.34 19.39 62.78 19.45C63.2 19.51 64.47 19.51 64.92 19.45C65.99 19.31 66.89 19 67.61 18.52C68.58 17.87 69.19 16.86 69.37 15.61C69.42 15.23 69.4 14.4 69.32 14C69.06 12.72 68.24 11.81 66.87 11.27C66.33 11.05 65.61 10.88 64.49 10.69C63.13 10.46 62.75 10.35 62.35 10.09C61.91 9.81 61.69 9.42 61.66 8.88C61.61 8.2 61.93 7.62 62.5 7.34C62.9 7.14 63.26 7.08 63.85 7.1C64.69 7.13 65.16 7.32 65.68 7.84C65.99 8.15 66.2 8.51 66.28 8.89L66.33 9.09L67.89 9.09C69.02 9.09 69.44 9.08 69.44 9.05C69.44 8.93 69.23 8.1 69.14 7.81C68.52 6.06 67.09 4.92 65.05 4.57C64.53 4.48 63.47 4.44 62.96 4.49ZM12.89 4.7C15.14 5.01 16.96 6.54 17.64 8.67C18.15 10.27 18.01 12.25 17.29 13.89C17.2 14.08 17.19 14.09 17.02 14.11C16.92 14.13 16.76 14.14 16.66 14.14C16.4 14.14 15.8 14.23 15.46 14.33C14.43 14.61 13.7 15.15 13.22 15.98C12.86 16.6 12.62 17.49 12.52 18.53C12.5 18.75 12.47 19.05 12.46 19.19L12.44 19.45L12.03 19.45L11.63 19.45L11.57 18.86C11.49 18.1 11.37 17.41 11.25 17C10.86 15.65 10.1 14.81 8.88 14.4C8.51 14.27 7.8 14.14 7.48 14.13C7.36 14.13 7.2 14.12 7.12 14.11C6.98 14.08 6.97 14.07 6.81 13.7C6.58 13.17 6.36 12.49 6.24 11.93C6.15 11.48 6.14 11.37 6.14 10.56C6.14 9.85 6.15 9.61 6.2 9.37C6.6 7.56 7.76 6.04 9.34 5.27C10.44 4.73 11.68 4.53 12.89 4.7ZM30.45 4.69C28.6 4.83 27.01 5.72 26.11 7.11C25.57 7.96 25.24 9.04 25.21 10.09L25.2 10.5L26.71 10.51L28.22 10.52L28.24 10.17C28.32 9.02 28.93 8.07 29.86 7.67C30.58 7.35 31.65 7.43 32.26 7.83C32.56 8.03 32.7 8.17 32.9 8.47C33.29 9.07 33.41 9.95 33.16 10.56C32.91 11.2 32.29 11.75 31.22 12.28C29.98 12.91 27.38 14.01 25.75 14.61L25.29 14.78L25.29 16.93L25.29 19.07L31 19.07L36.71 19.07L36.71 17.62L36.71 16.17L32.82 16.17L28.93 16.17L29.46 15.99C30.86 15.5 32.93 14.57 33.8 14.02C35.05 13.23 35.79 12.37 36.16 11.27C36.36 10.66 36.42 10.24 36.39 9.48C36.36 8.56 36.22 7.97 35.87 7.26C35.65 6.83 35.45 6.55 35.09 6.18C34.25 5.3 33.03 4.78 31.57 4.68C30.99 4.64 31.02 4.64 30.45 4.69ZM44.24 4.69C43.37 4.76 42.45 5 41.73 5.34C39.55 6.37 38.23 8.29 37.87 10.93C37.81 11.42 37.82 12.63 37.89 13.18C38.06 14.42 38.49 15.54 39.15 16.47C39.45 16.9 40.15 17.62 40.57 17.93C41.41 18.55 42.43 18.99 43.51 19.19C44.1 19.3 45.37 19.33 45.98 19.24C47.53 19.02 48.73 18.44 49.74 17.42C50.28 16.88 50.61 16.42 50.9 15.79C51.37 14.81 51.55 13.88 51.55 12.41L51.55 11.73L48.06 11.73L44.58 11.73L44.58 12.93L44.58 14.14L46.5 14.15L48.42 14.16L48.3 14.42C48.05 14.93 47.63 15.42 47.13 15.75C46.42 16.24 45.3 16.47 44.34 16.34C42.77 16.14 41.7 15.25 41.15 13.7C40.83 12.79 40.8 11.48 41.07 10.5C41.16 10.14 41.37 9.66 41.56 9.34C41.77 8.99 42.24 8.47 42.57 8.24C43.3 7.72 44.33 7.47 45.35 7.58C46.74 7.72 47.69 8.36 48.24 9.53L48.39 9.84L49.97 9.84C51.46 9.84 51.55 9.84 51.54 9.78C51.52 9.74 51.48 9.57 51.44 9.39C50.9 7.07 49.14 5.4 46.63 4.84C45.97 4.69 44.99 4.62 44.24 4.69ZM53.47 12.01L53.47 19.07L54.96 19.07L56.45 19.07L56.45 12.01L56.45 4.94L54.96 4.94L53.47 4.94L53.47 12.01Z" fill="#29B24A" fill-opacity="1.000000" fill-rule="evenodd"/>
		</g>
	</g>
</svg>
