<svg width="50" height="50" viewBox="0 0 50 50" fill="none" xmlns="http://www.w3.org/2000/svg">
<rect width="50" height="50" rx="16" fill="#B85FFF"/>
<path d="M16.783 15.826L25 14L33.217 15.826C33.4391 15.8754 33.6377 15.999 33.78 16.1764C33.9224 16.3538 34 16.5745 34 16.802V26.789C33.9999 27.7767 33.756 28.7492 33.2899 29.62C32.8238 30.4908 32.1499 31.2331 31.328 31.781L25 36L18.672 31.781C17.8503 31.2332 17.1765 30.4911 16.7103 29.6205C16.2442 28.7498 16.0002 27.7776 16 26.79V16.802C16 16.5745 16.0776 16.3538 16.22 16.1764C16.3623 15.999 16.5609 15.8754 16.783 15.826ZM26 23V18L21 25H24V30L29 23H26Z" fill="white"/>
</svg>
