<svg width="50" height="50" viewBox="0 0 50 50" fill="none" xmlns="http://www.w3.org/2000/svg">
<rect width="50" height="50" rx="16" fill="#B85FFF"/>
<path d="M25.0001 36C23.4972 35.9999 22.0291 35.5483 20.786 34.7037C19.5429 33.8592 18.5822 32.6606 18.0284 31.2635C17.4747 29.8664 17.3534 28.3352 17.6804 26.8683C18.0073 25.4015 18.7674 24.0667 19.8621 23.037C21.2041 21.774 24.5001 19.5 24.0001 14.5C30.0001 18.5 33.0001 22.5 27.0001 28.5C28.0001 28.5 29.5001 28.5 32.0001 26.03C32.2701 26.803 32.5001 27.634 32.5001 28.5C32.5001 30.4891 31.7099 32.3968 30.3034 33.8033C28.8969 35.2098 26.9892 36 25.0001 36Z" fill="white"/>
</svg>
