<svg width="24.000000" height="24.000000" viewBox="0 0 24 24" fill="none" xmlns="http://www.w3.org/2000/svg" xmlns:xlink="http://www.w3.org/1999/xlink">
	<desc>
			Created with Pixso.
	</desc>
	<defs>
		<clipPath id="clip17_3214">
			<rect id="Property 1=Variant5" width="24.000000" height="24.000000" fill="white" fill-opacity="0"/>
		</clipPath>
	</defs>
	<rect id="Property 1=Variant5" width="24.000000" height="24.000000" fill="#FFFFFF" fill-opacity="0"/>
	<g clip-path="url(#clip17_3214)">
		<path id="Vector" d="M22.49 6.86C22.65 6.37 22.49 6 21.76 6L19.36 6C18.74 6 18.47 6.31 18.31 6.66C18.31 6.66 17.09 9.59 15.35 11.5C14.78 12.05 14.53 12.23 14.23 12.23C14.07 12.23 13.82 12.05 13.82 11.55L13.82 6.86C13.82 6.26 13.68 6 13.17 6L9.38 6C9 6 8.77 6.28 8.77 6.54C8.77 7.1 9.67 7.24 9.72 8.84L9.72 12.32C9.72 13.09 9.58 13.23 9.28 13.23C8.48 13.23 6.48 10.28 5.31 6.92C5.07 6.26 4.84 6 4.23 6L1.81 6C1.14 6 1 6.31 1 6.66C1 7.29 1.81 10.39 4.8 14.5C6.78 17.31 9.58 18.83 12.14 18.83C13.67 18.83 13.86 18.49 13.86 17.91L13.86 15.78C13.86 15.12 14 14.98 14.49 14.98C14.84 14.98 15.45 15.15 16.87 16.5C18.51 18.11 18.77 18.83 19.7 18.83L22.1 18.83C22.79 18.83 23.13 18.49 22.94 17.83C22.73 17.16 21.95 16.19 20.91 15.05C20.35 14.41 19.51 13.71 19.25 13.35C18.89 12.9 19 12.7 19.25 12.3C19.25 12.3 22.18 8.25 22.49 6.86Z" fill="#518EF8" fill-opacity="1.000000" fill-rule="nonzero"/>
	</g>
</svg>
